<svg width="510" height="1918" viewBox="0 0 510 1918" fill="none" xmlns="http://www.w3.org/2000/svg">
<path d="M329.28 1486.27C320.352 1490.49 311.888 1495.9 303.888 1502.49C305.648 1503.55 307.184 1504.84 308.592 1506.25C310.24 1507.9 311.648 1509.77 312.816 1511.66C320.688 1505.43 329.152 1500.25 337.856 1496.27C335.28 1492.73 332.464 1489.43 329.28 1486.27Z" fill="#FFD436"/>
<path d="M0 1750.43L3.248 1806.23L57.328 1807.74L69.216 1795.85V1765H100.064L110.032 1755.03L110.016 1724.19H140.88L179.056 1686.01L121.728 1628.68L0 1750.43Z" fill="#FFD93B"/>
<path d="M106.192 1682.04C27.408 1760.83 18.88 1752.3 97.664 1673.51L155.568 1615.61L164.096 1624.14L106.192 1682.04Z" fill="#F4C534"/>
<path d="M164.144 1482.41C134.352 1512.2 124.56 1554.46 134.656 1592.44L110.112 1616.99L190.768 1697.63L215.312 1673.08C253.312 1683.18 295.568 1673.39 325.344 1643.59C369.872 1599.07 369.872 1526.83 325.344 1482.3C280.912 1437.88 208.672 1437.88 164.144 1482.41ZM304.352 1565.24L242.512 1503.4C259.632 1486.28 287.248 1486.38 304.256 1503.4C321.376 1520.51 321.472 1548.12 304.352 1565.24Z" fill="#5A5F63"/>
<path d="M489.936 1704.65L428.864 1643.58C402.896 1617.61 360.8 1617.61 334.832 1643.58L235.776 1742.63C209.808 1768.6 209.808 1810.7 235.776 1836.67L296.864 1897.74C322.832 1923.71 364.928 1923.71 390.896 1897.74L489.952 1798.68C515.904 1772.73 515.904 1730.62 489.936 1704.65ZM431.36 1751.26L383.76 1703.66C378.608 1698.51 378.608 1690.07 383.76 1684.92C388.912 1679.77 397.344 1679.77 402.496 1684.92L450.096 1732.52C455.248 1737.67 455.248 1746.11 450.096 1751.26C444.944 1756.41 436.512 1756.41 431.36 1751.26Z" fill="#3E4347"/>
<path d="M393.264 1713.15C364.192 1715.72 334.272 1706.94 310.832 1686.79C306.768 1688.87 302.768 1691.02 298.912 1693.26C328.24 1720.51 367.616 1730.94 404.672 1724.55L393.264 1713.15Z" fill="#ED2B35"/>
<path d="M471.136 1514.27C432.896 1476.03 375.456 1468.03 329.216 1490.43C320.416 1494.75 311.936 1500.19 303.936 1506.75C301.056 1508.99 298.336 1511.71 295.616 1514.27C288.256 1521.63 282.016 1529.63 277.056 1537.95L286.496 1547.39C291.136 1538.75 297.216 1530.75 304.576 1523.39C307.136 1520.83 310.016 1518.27 312.896 1515.87C320.736 1509.63 329.216 1504.51 337.856 1500.51C378.816 1482.27 428.576 1489.95 462.176 1523.39C504.896 1566.11 505.536 1635.23 464.256 1679.07L473.216 1688.03C519.776 1639.55 518.816 1562.11 471.136 1514.27ZM423.616 1706.11C413.856 1709.95 403.616 1712.35 393.216 1713.15C364.256 1715.87 334.176 1707.07 310.816 1686.91C308.736 1684.99 306.656 1683.07 304.416 1680.99C298.176 1674.75 292.736 1667.55 288.096 1660.19C284.096 1661.47 279.616 1662.59 275.296 1663.39C280.576 1672.83 287.616 1681.95 295.616 1689.95L298.816 1693.31C328.256 1720.51 367.616 1730.91 404.576 1724.51C414.496 1722.91 424.256 1719.87 433.376 1715.87L423.616 1706.11Z" fill="#DAE5EF"/>
<path d="M289.448 1810.29C306.352 1810.29 320.056 1796.59 320.056 1779.68C320.056 1762.78 306.352 1749.07 289.448 1749.07C272.544 1749.07 258.84 1762.78 258.84 1779.68C258.84 1796.59 272.544 1810.29 289.448 1810.29Z" fill="#E24B4B"/>
<path d="M355.2 1876.13C372.104 1876.13 385.808 1862.42 385.808 1845.52C385.808 1828.62 372.104 1814.91 355.2 1814.91C338.296 1814.91 324.592 1828.62 324.592 1845.52C324.592 1862.42 338.296 1876.13 355.2 1876.13Z" fill="#65B1EF"/>
<path d="M374 0V1490.5" stroke="white" stroke-width="2"/>
</svg>
